PathFileType	4	(X/Y/Z)	Patient4_TMGait_0pt5_02_left_10.trc.trc
DataRate	CameraRate	NumFrames	NumMarkers	Units	OrigDataRate	OrigDataStartFrame	OrigNumFrames
74.074074074074	74.074074074074	5	33	mm	74.074074074074	18	       141
Frame#	Time	Sacral			L.Shoulder			Chest			R.Shoulder			Neck			R.ASIS			L.ASIS			R.Thigh.Superior			R.Thigh.Lateral			R.Thigh.Inferior			R.Patella			L.Thigh.Superior			L.Thigh.Lateral			L.Thigh.Inferior			L.Patella			L.Shank.Superior			L.Shank.Lateral			L.Shank.Inferior			R.Shank.Superior			R.Shank.Lateral			R.Shank.Inferior			R.Heel			R.Midfoot.Superior			R.Midfoot.Lateral			R.Toe			L.Heel			L.Midfoot.Lateral			L.Midfoot.Superior			L.Toe			L.Elbow			L.Wrist			R.Elbow			R.Wrist			
		X1	Y1	Z1	X2	Y2	Z2	X3	Y3	Z3	X4	Y4	Z4	X5	Y5	Z5	X6	Y6	Z6	X7	Y7	Z7	X8	Y8	Z8	X9	Y9	Z9	X10	Y10	Z10	X11	Y11	Z11	X12	Y12	Z12	X13	Y13	Z13	X14	Y14	Z14	X15	Y15	Z15	X16	Y16	Z16	X17	Y17	Z17	X18	Y18	Z18	X19	Y19	Z19	X20	Y20	Z20	X21	Y21	Z21	X22	Y22	Z22	X23	Y23	Z23	X24	Y24	Z24	X25	Y25	Z25	X26	Y26	Z26	X27	Y27	Z27	X28	Y28	Z28	X29	Y29	Z29	X30	Y30	Z30	X31	Y31	Z31	X32	Y32	Z32	X33	Y33	Z33	

18	12.599500000000	589.700277646119	1012.937159141861	525.093893821179	760.142464032985	1440.575976229233	341.323556840517	879.409537421151	1356.741918392694	483.534214207029	824.482196391075	1428.426004639263	669.168722925845	781.760535586837	1493.601472150274	493.803178685401	822.588627872869	937.829968144176	618.103683079744	783.712044652132	959.759338512240	345.567697975594	825.929462259979	729.059094719863	587.267191816317	728.405368897968	631.673844769818	648.599819895129	788.816151329054	570.786256611599	565.214067179632	774.340358573734	487.027653919413	568.250854993503	856.194903229977	775.920507291655	374.082398522687	809.611196707314	649.830734638193	294.826382665063	910.345173390360	588.700827347551	358.564212936739	939.286017594586	526.079734126029	354.298933823917	926.730643721316	455.875046644780	343.167723702334	869.319237515298	323.359730397256	288.285337129752	959.922500773806	228.398211355922	345.168057872357	741.751873343575	401.525354025970	572.231050939942	664.985071862740	299.149623737273	628.200583769864	703.988089013966	205.311144970023	561.928791104304	563.215089515180	43.143107058791	520.423640833534	734.524365195962	96.569735288745	562.749659809084	644.051995840964	36.371306798004	597.797212323976	852.434306142951	41.147912185143	594.831701749861	885.477730149991	41.546909122016	380.160296503964	960.730326657286	52.541207084880	301.699681059316	1025.158447383525	135.246859852678	323.735378234558	1161.081439185424	117.297553737656	300.663805597775	635.113358771942	1105.982136077621	238.085144640753	618.552663401386	845.980014052023	242.506914361576	964.450055303663	1121.174035553459	769.798190006022	1190.800817998687	1177.465948055354	672.813219726026	
19	12.613000000000	590.156264409978	1011.869261023610	524.054181831494	759.348626805619	1439.630262497457	339.635901293831	878.947377740652	1355.989653139252	481.649518949988	824.163474965101	1427.795776995642	667.208144413799	781.171383908633	1492.661814045438	492.010555358912	822.879868509500	937.198779844449	617.104507289746	784.001564681393	958.245554310758	344.444925935183	824.307254330235	727.924901457564	586.419359387599	725.884425080935	631.283343579224	648.130768816855	785.312214507201	569.868769895467	564.686875404236	770.040998545244	486.146356121901	567.723604698411	856.434766781549	774.336633344812	373.228949831560	808.499802451048	647.516167740464	295.111649220540	909.825988898683	586.750706775301	357.921220408007	938.655083618088	524.531541702763	354.289700978932	926.531358588564	454.387369523066	343.668244968786	869.856661360037	321.159636671112	290.058835812625	961.683897636396	227.295520796695	346.740594895610	736.861690399042	400.897033385305	571.889662819621	659.614387720839	298.991528274270	628.099782797041	697.846920844341	204.909294698401	561.727344820080	556.335909279278	42.987894126813	520.447815509536	727.609150756297	96.513641898630	562.705267969946	637.165687591979	36.300038349497	597.834176160536	845.565844887034	41.241861044663	594.811971671755	888.591158021315	41.052740963876	383.160491544529	963.544165534180	51.268789854673	304.392846729336	1028.166695304572	133.749795303422	325.642905624968	1163.874583145297	115.221953336649	302.348995446987	628.513702527033	1107.658584322246	237.274032495527	606.550417269694	848.100621057823	243.065671679327	969.450622132452	1123.865256563210	766.652011213581	1191.059550316700	1191.442161927121	667.276675700965	
20	12.626500000000	590.888319579622	1010.627540732589	522.820004909677	758.491107443949	1438.560379712741	337.718821567501	878.453595966174	1355.297345456978	479.608069947708	823.658053450996	1427.187447103928	665.085756733644	780.416974096707	1491.667764846266	489.993693469333	823.429217371163	936.512953635757	616.055028209116	784.698067391315	956.617948790377	343.277093392700	823.084196542079	726.738191763033	585.529335509668	723.731897981877	630.833842866882	647.578337472410	782.215561591425	568.863134181743	564.095942508933	766.136236842949	485.173396057606	567.116132475216	857.231990144203	772.607799484756	372.281300921283	807.659611262026	644.997110777313	295.551301182292	909.610778510769	584.616550809749	357.351952940658	938.189048304678	522.503766701595	354.349281161388	926.087736913582	452.261261414078	344.305802254075	869.216458042606	318.727811103778	292.096657130385	961.609560055296	225.387298210032	348.549051850265	732.320227713499	400.187406740443	571.473534776982	654.521208990976	298.824821194276	627.978066461891	691.855314526412	204.454138263466	561.494018242206	549.474458254265	42.847311514214	520.475775102788	720.697941227545	96.438206762043	562.642449253588	630.297173046866	36.217280398973	597.868683333043	838.716068953380	41.292407958818	594.797914665486	888.535493116491	40.471358069943	386.331225496537	963.143759908765	49.574080362690	307.172837210578	1028.639940560679	131.146527553159	327.827977640354	1163.902204233635	110.963231011582	304.036328976278	622.423289427165	1109.096653082542	236.345383037190	595.708974853512	850.003190552887	243.370453237966	973.662207009854	1126.326795867775	763.617015926315	1190.386430780844	1204.012940829721	662.086296231681	
21	12.640000000000	591.868293930212	1009.243795722559	521.387238009329	757.602577697281	1437.375911298082	335.572130138972	877.950909107762	1354.666516269522	477.414866991304	822.991440545673	1426.604620822491	662.810090599874	779.529232695586	1490.634704225608	487.752776726942	824.219516961187	935.768866573213	614.953934649850	785.783286181328	954.904254384597	342.066006107947	822.292289790671	725.502058566385	584.632604390600	721.962400546256	630.320954414854	646.929107128957	779.576328942748	567.764645741963	563.449174580502	762.671829056903	484.096962009267	566.415688455123	858.484342858589	770.718379318112	371.261894868365	807.066196074474	642.355565970339	296.072924128249	909.603430467708	582.333609951654	356.890486802790	937.786197409615	520.068920640634	354.514604109869	925.408016657424	449.609039769676	345.045429111394	867.621737230027	316.088908594915	294.256230025924	960.021046914193	222.782204491893	350.508508933181	728.163079677738	399.387577629125	570.966384792762	649.725481900482	298.656637464346	627.819683135119	686.027176133008	203.948480669748	561.225132499522	542.634939787012	42.734217542786	520.511256486611	713.797989362236	96.346779691343	562.560563868733	623.450750375821	36.127838864899	597.900866975130	831.888000107631	41.287898126262	594.793005403119	885.798876744719	39.785813785357	389.444301962614	960.108608021923	47.534291574138	309.901484298360	1027.042879697714	127.590544828539	330.264866313551	1161.693581872692	104.818879195870	305.874386371240	616.925390745452	1110.233002075234	235.297427953282	586.044878269312	851.608192556680	243.401021416835	977.077973289473	1128.477843240621	760.727370502970	1188.940996020149	1215.092627530406	657.259505236046	
22	12.653500000000	593.052440376221	1007.767673452435	519.760061180511	756.725350818356	1436.099533760543	333.201834731395	877.467696211477	1354.101271657999	475.079253172257	822.202719955399	1426.061424880990	660.390968448690	778.555377209660	1489.589247056716	485.289853797586	825.219812075845	934.971000763951	613.792823099561	787.212936880782	953.153148165955	340.809888562249	821.937586637705	724.228538226569	583.748482133919	720.577153092789	629.747298851305	646.163899306539	777.430113637937	566.581107738087	562.744515906828	759.683876123936	482.908963312250	565.605700671767	860.075409600197	768.690017642992	370.191648274533	806.696992125763	639.705700755737	296.590749951776	909.722251032338	579.975889061520	356.546248566102	937.354259871727	517.349479462292	354.794467363400	924.520353777224	446.597468102470	345.822816310555	865.337414455008	313.324654831570	296.375000519821	957.295699628720	219.672520372752	352.505711461620	724.413603941506	398.494854796743	570.350528481023	645.234222042637	298.501033129243	627.603781971593	680.369886318502	203.404128037686	560.916995100124	535.820188385630	42.670407237316	520.558026769784	706.919949783823	96.248288060910	562.462941418278	616.629785386391	36.042169515016	597.931365386982	825.083855520227	41.219387609048	594.800454863684	880.978357584543	39.042909244206	392.295396602577	955.104141099540	45.291143967980	312.445628976285	1023.894365548199	123.338691851422	332.881255742001	1157.826876836231	97.246805688439	307.945757359653	612.107303604763	1111.018867076358	234.121268560579	577.585545449056	852.856724457769	243.139972672263	979.693656029872	1130.246206083692	758.006096309630	1186.880135211309	1224.617998632590	652.805367283265	
